<svg id="visual" viewBox="0 0 960 540" width="960" height="540" xmlns="http://www.w3.org/2000/svg" xmlns:xlink="http://www.w3.org/1999/xlink" version="1.1"><rect x="0" y="0" width="960" height="540" fill="#DFF7EA"></rect><path d="M0 322L22.8 332C45.7 342 91.3 362 137 364.2C182.7 366.3 228.3 350.7 274 353C319.7 355.3 365.3 375.7 411.2 379.2C457 382.7 503 369.3 548.8 356.5C594.7 343.7 640.3 331.3 686 335.2C731.7 339 777.3 359 823 361.3C868.7 363.7 914.3 348.3 937.2 340.7L960 333L960 541L937.2 541C914.3 541 868.7 541 823 541C777.3 541 731.7 541 686 541C640.3 541 594.7 541 548.8 541C503 541 457 541 411.2 541C365.3 541 319.7 541 274 541C228.3 541 182.7 541 137 541C91.3 541 45.7 541 22.8 541L0 541Z" fill="#62afb4"></path><path d="M0 432L22.8 425.3C45.7 418.7 91.3 405.3 137 393.2C182.7 381 228.3 370 274 375.8C319.7 381.7 365.3 404.3 411.2 409.8C457 415.3 503 403.7 548.8 402.7C594.7 401.7 640.3 411.3 686 414.5C731.7 417.7 777.3 414.3 823 412C868.7 409.7 914.3 408.3 937.2 407.7L960 407L960 541L937.2 541C914.3 541 868.7 541 823 541C777.3 541 731.7 541 686 541C640.3 541 594.7 541 548.8 541C503 541 457 541 411.2 541C365.3 541 319.7 541 274 541C228.3 541 182.7 541 137 541C91.3 541 45.7 541 22.8 541L0 541Z" fill="#7dbcb9"></path><path d="M0 447L22.8 448.8C45.7 450.7 91.3 454.3 137 449.5C182.7 444.7 228.3 431.3 274 427.5C319.7 423.7 365.3 429.3 411.2 434.5C457 439.7 503 444.3 548.8 444.8C594.7 445.3 640.3 441.7 686 441.3C731.7 441 777.3 444 823 441.5C868.7 439 914.3 431 937.2 427L960 423L960 541L937.2 541C914.3 541 868.7 541 823 541C777.3 541 731.7 541 686 541C640.3 541 594.7 541 548.8 541C503 541 457 541 411.2 541C365.3 541 319.7 541 274 541C228.3 541 182.7 541 137 541C91.3 541 45.7 541 22.8 541L0 541Z" fill="#97c9c0"></path><path d="M0 440L22.8 441.7C45.7 443.3 91.3 446.7 137 449.3C182.7 452 228.3 454 274 458.7C319.7 463.3 365.3 470.7 411.2 469.3C457 468 503 458 548.8 455.3C594.7 452.7 640.3 457.3 686 454.7C731.7 452 777.3 442 823 439.3C868.7 436.7 914.3 441.3 937.2 443.7L960 446L960 541L937.2 541C914.3 541 868.7 541 823 541C777.3 541 731.7 541 686 541C640.3 541 594.7 541 548.8 541C503 541 457 541 411.2 541C365.3 541 319.7 541 274 541C228.3 541 182.7 541 137 541C91.3 541 45.7 541 22.8 541L0 541Z" fill="#b0d6c9"></path><path d="M0 484L22.8 489C45.7 494 91.3 504 137 506.2C182.7 508.3 228.3 502.7 274 501C319.7 499.3 365.3 501.7 411.2 504.8C457 508 503 512 548.8 513.5C594.7 515 640.3 514 686 509.5C731.7 505 777.3 497 823 492.7C868.7 488.3 914.3 487.7 937.2 487.3L960 487L960 541L937.2 541C914.3 541 868.7 541 823 541C777.3 541 731.7 541 686 541C640.3 541 594.7 541 548.8 541C503 541 457 541 411.2 541C365.3 541 319.7 541 274 541C228.3 541 182.7 541 137 541C91.3 541 45.7 541 22.8 541L0 541Z" fill="#c8e3d5"></path></svg>