<svg id="visual" viewBox="0 0 960 540" width="960" height="540" xmlns="http://www.w3.org/2000/svg" xmlns:xlink="http://www.w3.org/1999/xlink" version="1.1"><path d="M0 33L12.3 34C24.7 35 49.3 37 74 38.8C98.7 40.7 123.3 42.3 148 43.2C172.7 44 197.3 44 221.8 45C246.3 46 270.7 48 295.2 44.5C319.7 41 344.3 32 369 28.3C393.7 24.7 418.3 26.3 443 29.8C467.7 33.3 492.3 38.7 517 42.3C541.7 46 566.3 48 591 49C615.7 50 640.3 50 664.8 47.2C689.3 44.3 713.7 38.7 738.2 34.2C762.7 29.7 787.3 26.3 812 27.3C836.7 28.3 861.3 33.7 886 37.2C910.7 40.7 935.3 42.3 947.7 43.2L960 44L960 0L947.7 0C935.3 0 910.7 0 886 0C861.3 0 836.7 0 812 0C787.3 0 762.7 0 738.2 0C713.7 0 689.3 0 664.8 0C640.3 0 615.7 0 591 0C566.3 0 541.7 0 517 0C492.3 0 467.7 0 443 0C418.3 0 393.7 0 369 0C344.3 0 319.7 0 295.2 0C270.7 0 246.3 0 221.8 0C197.3 0 172.7 0 148 0C123.3 0 98.7 0 74 0C49.3 0 24.7 0 12.3 0L0 0Z" fill="#cdebe6"></path><path d="M0 174L12.3 174.8C24.7 175.7 49.3 177.3 74 171.8C98.7 166.3 123.3 153.7 148 156.3C172.7 159 197.3 177 221.8 179.8C246.3 182.7 270.7 170.3 295.2 158.7C319.7 147 344.3 136 369 136C393.7 136 418.3 147 443 151.5C467.7 156 492.3 154 517 155.7C541.7 157.3 566.3 162.7 591 167.2C615.7 171.7 640.3 175.3 664.8 176.3C689.3 177.3 713.7 175.7 738.2 173C762.7 170.3 787.3 166.7 812 161.2C836.7 155.7 861.3 148.3 886 153.7C910.7 159 935.3 177 947.7 186L960 195L960 42L947.7 41.2C935.3 40.3 910.7 38.7 886 35.2C861.3 31.7 836.7 26.3 812 25.3C787.3 24.3 762.7 27.7 738.2 32.2C713.7 36.7 689.3 42.3 664.8 45.2C640.3 48 615.7 48 591 47C566.3 46 541.7 44 517 40.3C492.3 36.7 467.7 31.3 443 27.8C418.3 24.3 393.7 22.7 369 26.3C344.3 30 319.7 39 295.2 42.5C270.7 46 246.3 44 221.8 43C197.3 42 172.7 42 148 41.2C123.3 40.3 98.7 38.7 74 36.8C49.3 35 24.7 33 12.3 32L0 31Z" fill="#c6e8e3"></path><path d="M0 249L12.3 254.5C24.7 260 49.3 271 74 275.5C98.7 280 123.3 278 148 277C172.7 276 197.3 276 221.8 279.7C246.3 283.3 270.7 290.7 295.2 295.2C319.7 299.7 344.3 301.3 369 300.5C393.7 299.7 418.3 296.3 443 289.2C467.7 282 492.3 271 517 271.8C541.7 272.7 566.3 285.3 591 288C615.7 290.7 640.3 283.3 664.8 282.5C689.3 281.7 713.7 287.3 738.2 282.8C762.7 278.3 787.3 263.7 812 257.3C836.7 251 861.3 253 886 261.2C910.7 269.3 935.3 283.7 947.7 290.8L960 298L960 193L947.7 184C935.3 175 910.7 157 886 151.7C861.3 146.3 836.7 153.7 812 159.2C787.3 164.7 762.7 168.3 738.2 171C713.7 173.7 689.3 175.3 664.8 174.3C640.3 173.3 615.7 169.7 591 165.2C566.3 160.7 541.7 155.3 517 153.7C492.3 152 467.7 154 443 149.5C418.3 145 393.7 134 369 134C344.3 134 319.7 145 295.2 156.7C270.7 168.3 246.3 180.7 221.8 177.8C197.3 175 172.7 157 148 154.3C123.3 151.7 98.7 164.3 74 169.8C49.3 175.3 24.7 173.7 12.3 172.8L0 172Z" fill="#bfe6e1"></path><path d="M0 293L12.3 299.2C24.7 305.3 49.3 317.7 74 323.8C98.7 330 123.3 330 148 330C172.7 330 197.3 330 221.8 333.7C246.3 337.3 270.7 344.7 295.2 344.7C319.7 344.7 344.3 337.3 369 332.8C393.7 328.3 418.3 326.7 443 319.5C467.7 312.3 492.3 299.7 517 301.5C541.7 303.3 566.3 319.7 591 326.8C615.7 334 640.3 332 664.8 331C689.3 330 713.7 330 738.2 323.8C762.7 317.7 787.3 305.3 812 298.2C836.7 291 861.3 289 886 295.2C910.7 301.3 935.3 315.7 947.7 322.8L960 330L960 296L947.7 288.8C935.3 281.7 910.7 267.3 886 259.2C861.3 251 836.7 249 812 255.3C787.3 261.7 762.7 276.3 738.2 280.8C713.7 285.3 689.3 279.7 664.8 280.5C640.3 281.3 615.7 288.7 591 286C566.3 283.3 541.7 270.7 517 269.8C492.3 269 467.7 280 443 287.2C418.3 294.3 393.7 297.7 369 298.5C344.3 299.3 319.7 297.7 295.2 293.2C270.7 288.7 246.3 281.3 221.8 277.7C197.3 274 172.7 274 148 275C123.3 276 98.7 278 74 273.5C49.3 269 24.7 258 12.3 252.5L0 247Z" fill="#b8e3de"></path><path d="M0 395L12.3 399.5C24.7 404 49.3 413 74 415.7C98.7 418.3 123.3 414.7 148 417.3C172.7 420 197.3 429 221.8 425.5C246.3 422 270.7 406 295.2 398C319.7 390 344.3 390 369 390C393.7 390 418.3 390 443 388.2C467.7 386.3 492.3 382.7 517 392.5C541.7 402.3 566.3 425.7 591 430.2C615.7 434.7 640.3 420.3 664.8 410.5C689.3 400.7 713.7 395.3 738.2 392.7C762.7 390 787.3 390 812 388.2C836.7 386.3 861.3 382.7 886 386.2C910.7 389.7 935.3 400.3 947.7 405.7L960 411L960 328L947.7 320.8C935.3 313.7 910.7 299.3 886 293.2C861.3 287 836.7 289 812 296.2C787.3 303.3 762.7 315.7 738.2 321.8C713.7 328 689.3 328 664.8 329C640.3 330 615.7 332 591 324.8C566.3 317.7 541.7 301.3 517 299.5C492.3 297.7 467.7 310.3 443 317.5C418.3 324.7 393.7 326.3 369 330.8C344.3 335.3 319.7 342.7 295.2 342.7C270.7 342.7 246.3 335.3 221.8 331.7C197.3 328 172.7 328 148 328C123.3 328 98.7 328 74 321.8C49.3 315.7 24.7 303.3 12.3 297.2L0 291Z" fill="#afded9"></path><path d="M0 438L12.3 439.8C24.7 441.7 49.3 445.3 74 448.2C98.7 451 123.3 453 148 455.7C172.7 458.3 197.3 461.7 221.8 454.3C246.3 447 270.7 429 295.2 424.5C319.7 420 344.3 429 369 433.5C393.7 438 418.3 438 443 432.7C467.7 427.3 492.3 416.7 517 423C541.7 429.3 566.3 452.7 591 459C615.7 465.3 640.3 454.7 664.8 445.7C689.3 436.7 713.7 429.3 738.2 424.8C762.7 420.3 787.3 418.7 812 418.7C836.7 418.7 861.3 420.3 886 425.7C910.7 431 935.3 440 947.7 444.5L960 449L960 409L947.7 403.7C935.3 398.3 910.7 387.7 886 384.2C861.3 380.7 836.7 384.3 812 386.2C787.3 388 762.7 388 738.2 390.7C713.7 393.3 689.3 398.7 664.8 408.5C640.3 418.3 615.7 432.7 591 428.2C566.3 423.7 541.7 400.3 517 390.5C492.3 380.7 467.7 384.3 443 386.2C418.3 388 393.7 388 369 388C344.3 388 319.7 388 295.2 396C270.7 404 246.3 420 221.8 423.5C197.3 427 172.7 418 148 415.3C123.3 412.7 98.7 416.3 74 413.7C49.3 411 24.7 402 12.3 397.5L0 393Z" fill="#a4d6d1"></path><path d="M0 476L12.3 479.7C24.7 483.3 49.3 490.7 74 492.5C98.7 494.3 123.3 490.7 148 490.7C172.7 490.7 197.3 494.3 221.8 494.3C246.3 494.3 270.7 490.7 295.2 488.8C319.7 487 344.3 487 369 488.8C393.7 490.7 418.3 494.3 443 495.2C467.7 496 492.3 494 517 496.7C541.7 499.3 566.3 506.7 591 508.5C615.7 510.3 640.3 506.7 664.8 505.8C689.3 505 713.7 507 738.2 505.2C762.7 503.3 787.3 497.7 812 496.7C836.7 495.7 861.3 499.3 886 499.3C910.7 499.3 935.3 495.7 947.7 493.8L960 492L960 447L947.7 442.5C935.3 438 910.7 429 886 423.7C861.3 418.3 836.7 416.7 812 416.7C787.3 416.7 762.7 418.3 738.2 422.8C713.7 427.3 689.3 434.7 664.8 443.7C640.3 452.7 615.7 463.3 591 457C566.3 450.7 541.7 427.3 517 421C492.3 414.7 467.7 425.3 443 430.7C418.3 436 393.7 436 369 431.5C344.3 427 319.7 418 295.2 422.5C270.7 427 246.3 445 221.8 452.3C197.3 459.7 172.7 456.3 148 453.7C123.3 451 98.7 449 74 446.2C49.3 443.3 24.7 439.7 12.3 437.8L0 436Z" fill="#98cfc8"></path><path d="M0 541L12.3 541C24.7 541 49.3 541 74 541C98.7 541 123.3 541 148 541C172.7 541 197.3 541 221.8 541C246.3 541 270.7 541 295.2 541C319.7 541 344.3 541 369 541C393.7 541 418.3 541 443 541C467.7 541 492.3 541 517 541C541.7 541 566.3 541 591 541C615.7 541 640.3 541 664.8 541C689.3 541 713.7 541 738.2 541C762.7 541 787.3 541 812 541C836.7 541 861.3 541 886 541C910.7 541 935.3 541 947.7 541L960 541L960 490L947.7 491.8C935.3 493.7 910.7 497.3 886 497.3C861.3 497.3 836.7 493.7 812 494.7C787.3 495.7 762.7 501.3 738.2 503.2C713.7 505 689.3 503 664.8 503.8C640.3 504.7 615.7 508.3 591 506.5C566.3 504.7 541.7 497.3 517 494.7C492.3 492 467.7 494 443 493.2C418.3 492.3 393.7 488.7 369 486.8C344.3 485 319.7 485 295.2 486.8C270.7 488.7 246.3 492.3 221.8 492.3C197.3 492.3 172.7 488.7 148 488.7C123.3 488.7 98.7 492.3 74 490.5C49.3 488.7 24.7 481.3 12.3 477.7L0 474Z" fill="#8dc7c0"></path></svg>